<?xml version="1.0" encoding="UTF-8"?>
<!DOCTYPE svg PUBLIC "-//W3C//DTD SVG 1.1//EN" "http://www.w3.org/Graphics/SVG/1.1/DTD/svg11.dtd">
<svg xmlns="http://www.w3.org/2000/svg" version="1.1" width="232px" height="232px" style="shape-rendering:geometricPrecision; text-rendering:geometricPrecision; image-rendering:optimizeQuality; fill-rule:evenodd; clip-rule:evenodd" xmlns:xlink="http://www.w3.org/1999/xlink">
<g><path style="opacity:1" fill="#fdb065" d="M 114.5,2.5 C 122.253,2.201 129.92,2.53433 137.5,3.5C 137.5,9.83333 137.5,16.1667 137.5,22.5C 126.167,22.5 114.833,22.5 103.5,22.5C 103.5,16.1667 103.5,9.83333 103.5,3.5C 106.962,2.51836 110.629,2.18503 114.5,2.5 Z"/></g>
<g><path style="opacity:1" fill="#fcaa58" d="M 114.5,-0.5 C 126.167,-0.5 137.833,-0.5 149.5,-0.5C 150.467,2.15529 152.133,2.82195 154.5,1.5C 156.382,2.09326 158.215,2.75992 160,3.5C 160.185,10.7466 160.685,17.9133 161.5,25C 168.826,25.4997 176.159,25.6663 183.5,25.5C 183.5,29.5 183.5,33.5 183.5,37.5C 176.167,37.5 168.833,37.5 161.5,37.5C 159.393,36.5318 157.059,36.1984 154.5,36.5C 154.5,34.1667 154.5,31.8333 154.5,29.5C 151.833,29.5 149.167,29.5 146.5,29.5C 146.5,28.1667 146.5,26.8333 146.5,25.5C 147.5,25.5 148.5,25.5 149.5,25.5C 149.5,17.8333 149.5,10.1667 149.5,2.5C 145.298,2.18325 141.298,2.51658 137.5,3.5C 129.92,2.53433 122.253,2.201 114.5,2.5C 114.5,1.5 114.5,0.5 114.5,-0.5 Z"/></g>
<g><path style="opacity:1" fill="#fe9d3d" d="M 195.5,-0.5 C 207.5,-0.5 219.5,-0.5 231.5,-0.5C 231.5,8.16667 231.5,16.8333 231.5,25.5C 227.429,25.2338 223.429,25.5672 219.5,26.5C 218.8,30.041 218.133,33.541 217.5,37C 213.779,37.6781 210.112,37.5114 206.5,36.5C 206.5,32.5 206.5,28.5 206.5,24.5C 202.563,24.7935 198.73,24.4601 195,23.5C 195.165,15.5207 195.331,7.52069 195.5,-0.5 Z"/></g>
<g><path style="opacity:1" fill="#fda348" d="M 22.5,-0.5 C 53.1667,-0.5 83.8333,-0.5 114.5,-0.5C 114.5,0.5 114.5,1.5 114.5,2.5C 110.629,2.18503 106.962,2.51836 103.5,3.5C 102.521,6.62482 102.187,9.95815 102.5,13.5C 87.4992,13.8044 72.4992,14.1377 57.5,14.5C 57.5,18.1667 57.5,21.8333 57.5,25.5C 61.1667,25.5 64.8333,25.5 68.5,25.5C 68.5,29.1667 68.5,32.8333 68.5,36.5C 64.8333,36.5 61.1667,36.5 57.5,36.5C 57.5,44.1667 57.5,51.8333 57.5,59.5C 42.186,60.1705 26.8527,60.1705 11.5,59.5C 11.5,55.8333 11.5,52.1667 11.5,48.5C 15.7032,48.9239 19.7032,48.4239 23.5,47C 22.5201,39.9213 22.1868,32.7546 22.5,25.5C 26.5,25.5 30.5,25.5 34.5,25.5C 34.6871,18.5773 34.0204,11.744 32.5,5C 32.0946,4.05456 31.428,3.38789 30.5,3C 28.1667,2.66667 25.8333,2.33333 23.5,2C 22.7476,1.32924 22.4142,0.495904 22.5,-0.5 Z"/></g>
<g><path style="opacity:1" fill="#fdaa57" d="M 103.5,3.5 C 103.5,9.83333 103.5,16.1667 103.5,22.5C 98.8333,22.5 94.1667,22.5 89.5,22.5C 88.5318,24.6074 88.1984,26.9407 88.5,29.5C 85.9407,29.1984 83.6074,29.5318 81.5,30.5C 81.5,32.5 81.5,34.5 81.5,36.5C 78.8333,36.5 76.1667,36.5 73.5,36.5C 73.5,38.8333 73.5,41.1667 73.5,43.5C 71.1667,43.5 68.8333,43.5 66.5,43.5C 66.5,46.1667 66.5,48.8333 66.5,51.5C 64.5,51.5 62.5,51.5 60.5,51.5C 59.5058,61.6532 59.1724,71.9865 59.5,82.5C 57.8266,85.9524 56.8266,89.7857 56.5,94C 52.8484,94.4986 49.1817,94.6653 45.5,94.5C 45.5,90.5 45.5,86.5 45.5,82.5C 41.8333,82.5 38.1667,82.5 34.5,82.5C 34.5,78.8333 34.5,75.1667 34.5,71.5C 26.8333,71.5 19.1667,71.5 11.5,71.5C 11.5,67.8333 11.5,64.1667 11.5,60.5C 11.5,60.1667 11.5,59.8333 11.5,59.5C 26.8527,60.1705 42.186,60.1705 57.5,59.5C 57.5,51.8333 57.5,44.1667 57.5,36.5C 61.1667,36.5 64.8333,36.5 68.5,36.5C 68.5,32.8333 68.5,29.1667 68.5,25.5C 64.8333,25.5 61.1667,25.5 57.5,25.5C 57.5,21.8333 57.5,18.1667 57.5,14.5C 72.4992,14.1377 87.4992,13.8044 102.5,13.5C 102.187,9.95815 102.521,6.62482 103.5,3.5 Z"/></g>
<g><path style="opacity:1" fill="#fca249" d="M 146.5,25.5 C 146.5,24.5 146.5,23.5 146.5,22.5C 143.5,22.5 140.5,22.5 137.5,22.5C 137.5,16.1667 137.5,9.83333 137.5,3.5C 141.298,2.51658 145.298,2.18325 149.5,2.5C 149.5,10.1667 149.5,17.8333 149.5,25.5C 148.5,25.5 147.5,25.5 146.5,25.5 Z"/></g>
<g><path style="opacity:1" fill="#000000" d="M 89.5,22.5 C 94.1667,22.5 98.8333,22.5 103.5,22.5C 114.833,22.5 126.167,22.5 137.5,22.5C 140.5,22.5 143.5,22.5 146.5,22.5C 146.5,23.5 146.5,24.5 146.5,25.5C 146.5,26.8333 146.5,28.1667 146.5,29.5C 127.5,29.5 108.5,29.5 89.5,29.5C 89.5,27.1667 89.5,24.8333 89.5,22.5 Z"/></g>
<g><path style="opacity:1" fill="#fe9731" d="M -0.5,-0.5 C 7.16667,-0.5 14.8333,-0.5 22.5,-0.5C 22.4142,0.495904 22.7476,1.32924 23.5,2C 25.8333,2.33333 28.1667,2.66667 30.5,3C 31.428,3.38789 32.0946,4.05456 32.5,5C 34.0204,11.744 34.6871,18.5773 34.5,25.5C 30.5,25.5 26.5,25.5 22.5,25.5C 22.1868,32.7546 22.5201,39.9213 23.5,47C 19.7032,48.4239 15.7032,48.9239 11.5,48.5C 11.5,52.1667 11.5,55.8333 11.5,59.5C 11.5,59.8333 11.5,60.1667 11.5,60.5C 10.5184,63.9619 10.185,67.6286 10.5,71.5C 7.16667,71.5 3.83333,71.5 0.5,71.5C 0.5,75.1667 0.5,78.8333 0.5,82.5C 4.37141,82.185 8.03808,82.5184 11.5,83.5C 7.5,83.5 3.5,83.5 -0.5,83.5C -0.5,55.5 -0.5,27.5 -0.5,-0.5 Z"/></g>
<g><path style="opacity:1" fill="#fda44b" d="M 149.5,-0.5 C 164.833,-0.5 180.167,-0.5 195.5,-0.5C 195.331,7.52069 195.165,15.5207 195,23.5C 198.73,24.4601 202.563,24.7935 206.5,24.5C 206.5,28.5 206.5,32.5 206.5,36.5C 205.597,39.3915 205.264,42.3915 205.5,45.5C 202.059,45.3011 198.726,45.8011 195.5,47C 199.633,46.9064 203.299,47.7397 206.5,49.5C 193.904,49.7582 181.237,49.4249 168.5,48.5C 168.5,47.1667 168.5,45.8333 168.5,44.5C 166.167,44.5 163.833,44.5 161.5,44.5C 161.5,42.1667 161.5,39.8333 161.5,37.5C 168.833,37.5 176.167,37.5 183.5,37.5C 183.5,33.5 183.5,29.5 183.5,25.5C 176.159,25.6663 168.826,25.4997 161.5,25C 160.685,17.9133 160.185,10.7466 160,3.5C 158.215,2.75992 156.382,2.09326 154.5,1.5C 152.133,2.82195 150.467,2.15529 149.5,-0.5 Z"/></g>
<g><path style="opacity:1" fill="#453d37" d="M 89.5,22.5 C 89.5,24.8333 89.5,27.1667 89.5,29.5C 108.5,29.5 127.5,29.5 146.5,29.5C 149.167,29.5 151.833,29.5 154.5,29.5C 154.5,31.8333 154.5,34.1667 154.5,36.5C 157.059,36.1984 159.393,36.5318 161.5,37.5C 161.5,39.8333 161.5,42.1667 161.5,44.5C 161.5,46.8333 161.5,49.1667 161.5,51.5C 159.167,51.5 156.833,51.5 154.5,51.5C 154.5,49.1667 154.5,46.8333 154.5,44.5C 156.5,44.5 158.5,44.5 160.5,44.5C 160.5,42.1667 160.5,39.8333 160.5,37.5C 158.167,37.5 155.833,37.5 153.5,37.5C 153.5,39.8333 153.5,42.1667 153.5,44.5C 151.167,44.5 148.833,44.5 146.5,44.5C 146.5,42.1667 146.5,39.8333 146.5,37.5C 137.167,37.5 127.833,37.5 118.5,37.5C 118.802,40.0593 118.468,42.3926 117.5,44.5C 117.5,41.8333 117.5,39.1667 117.5,36.5C 127.167,36.5 136.833,36.5 146.5,36.5C 148.833,36.5 151.167,36.5 153.5,36.5C 153.5,34.5 153.5,32.5 153.5,30.5C 151.167,30.5 148.833,30.5 146.5,30.5C 127.5,30.5 108.5,30.5 89.5,30.5C 89.5,32.5 89.5,34.5 89.5,36.5C 89.1667,36.5 88.8333,36.5 88.5,36.5C 88.5,34.5 88.5,32.5 88.5,30.5C 86.1667,30.5 83.8333,30.5 81.5,30.5C 83.6074,29.5318 85.9407,29.1984 88.5,29.5C 88.1984,26.9407 88.5318,24.6074 89.5,22.5 Z"/></g>
<g><path style="opacity:1" fill="#000000" d="M 81.5,30.5 C 83.8333,30.5 86.1667,30.5 88.5,30.5C 88.5,32.5 88.5,34.5 88.5,36.5C 86.1667,36.5 83.8333,36.5 81.5,36.5C 81.5,34.5 81.5,32.5 81.5,30.5 Z"/></g>
<g><path style="opacity:1" fill="#514c48" d="M 146.5,30.5 C 146.5,32.5 146.5,34.5 146.5,36.5C 136.833,36.5 127.167,36.5 117.5,36.5C 117.5,39.1667 117.5,41.8333 117.5,44.5C 112.833,44.5 108.167,44.5 103.5,44.5C 103.5,41.8333 103.5,39.1667 103.5,36.5C 98.8333,36.5 94.1667,36.5 89.5,36.5C 89.5,34.5 89.5,32.5 89.5,30.5C 108.5,30.5 127.5,30.5 146.5,30.5 Z"/></g>
<g><path style="opacity:1" fill="#020202" d="M 146.5,30.5 C 148.833,30.5 151.167,30.5 153.5,30.5C 153.5,32.5 153.5,34.5 153.5,36.5C 151.167,36.5 148.833,36.5 146.5,36.5C 146.5,34.5 146.5,32.5 146.5,30.5 Z"/></g>
<g><path style="opacity:1" fill="#9e601a" d="M 81.5,36.5 C 81.5,36.8333 81.5,37.1667 81.5,37.5C 79.1667,37.5 76.8333,37.5 74.5,37.5C 74.5,39.8333 74.5,42.1667 74.5,44.5C 72.1667,44.5 69.8333,44.5 67.5,44.5C 67.5,46.8333 67.5,49.1667 67.5,51.5C 67.1667,51.5 66.8333,51.5 66.5,51.5C 66.5,48.8333 66.5,46.1667 66.5,43.5C 68.8333,43.5 71.1667,43.5 73.5,43.5C 73.5,41.1667 73.5,38.8333 73.5,36.5C 76.1667,36.5 78.8333,36.5 81.5,36.5 Z"/></g>
<g><path style="opacity:1" fill="#211f1f" d="M 81.5,36.5 C 83.8333,36.5 86.1667,36.5 88.5,36.5C 88.8333,36.5 89.1667,36.5 89.5,36.5C 94.1667,36.5 98.8333,36.5 103.5,36.5C 103.5,39.1667 103.5,41.8333 103.5,44.5C 108.167,44.5 112.833,44.5 117.5,44.5C 118.468,42.3926 118.802,40.0593 118.5,37.5C 127.833,37.5 137.167,37.5 146.5,37.5C 146.5,39.8333 146.5,42.1667 146.5,44.5C 148.833,44.5 151.167,44.5 153.5,44.5C 153.5,42.1667 153.5,39.8333 153.5,37.5C 155.833,37.5 158.167,37.5 160.5,37.5C 160.5,39.8333 160.5,42.1667 160.5,44.5C 158.5,44.5 156.5,44.5 154.5,44.5C 154.5,46.8333 154.5,49.1667 154.5,51.5C 156.833,51.5 159.167,51.5 161.5,51.5C 161.5,53.8333 161.5,56.1667 161.5,58.5C 163.833,58.5 166.167,58.5 168.5,58.5C 171.059,58.1984 173.393,58.5318 175.5,59.5C 173.167,59.5 170.833,59.5 168.5,59.5C 168.5,66.5 168.5,73.5 168.5,80.5C 168.5,85.1667 168.5,89.8333 168.5,94.5C 170.833,94.5 173.167,94.5 175.5,94.5C 175.5,94.8333 175.5,95.1667 175.5,95.5C 173.167,95.5 170.833,95.5 168.5,95.5C 168.5,97.8333 168.5,100.167 168.5,102.5C 166.167,102.5 163.833,102.5 161.5,102.5C 161.5,92.8333 161.5,83.1667 161.5,73.5C 159.167,73.5 156.833,73.5 154.5,73.5C 154.167,73.5 153.833,73.5 153.5,73.5C 151.167,73.5 148.833,73.5 146.5,73.5C 146.5,70.8333 146.5,68.1667 146.5,65.5C 146.5,63.1667 146.5,60.8333 146.5,58.5C 127.167,58.5 107.833,58.5 88.5,58.5C 88.5,60.8333 88.5,63.1667 88.5,65.5C 83.8333,65.5 79.1667,65.5 74.5,65.5C 74.5,63.1667 74.5,60.8333 74.5,58.5C 72.1667,58.5 69.8333,58.5 67.5,58.5C 67.5,56.1667 67.5,53.8333 67.5,51.5C 67.5,49.1667 67.5,46.8333 67.5,44.5C 69.8333,44.5 72.1667,44.5 74.5,44.5C 74.5,42.1667 74.5,39.8333 74.5,37.5C 76.8333,37.5 79.1667,37.5 81.5,37.5C 81.5,37.1667 81.5,36.8333 81.5,36.5 Z"/></g>
<g><path style="opacity:1" fill="#504b47" d="M 81.5,37.5 C 83.8333,37.5 86.1667,37.5 88.5,37.5C 88.5,39.8333 88.5,42.1667 88.5,44.5C 86.1667,44.5 83.8333,44.5 81.5,44.5C 81.5,42.1667 81.5,39.8333 81.5,37.5 Z"/></g>
<g><path style="opacity:1" fill="#000000" d="M 161.5,44.5 C 163.833,44.5 166.167,44.5 168.5,44.5C 168.5,45.8333 168.5,47.1667 168.5,48.5C 168.5,51.8333 168.5,55.1667 168.5,58.5C 166.167,58.5 163.833,58.5 161.5,58.5C 161.5,56.1667 161.5,53.8333 161.5,51.5C 161.5,49.1667 161.5,46.8333 161.5,44.5 Z"/></g>
<g><path style="opacity:1" fill="#fdab58" d="M 168.5,48.5 C 181.237,49.4249 193.904,49.7582 206.5,49.5C 206.666,56.5079 206.5,63.5079 206,70.5C 202.606,71.4558 199.106,71.7892 195.5,71.5C 194.985,90.4961 194.652,109.496 194.5,128.5C 191.167,128.5 187.833,128.5 184.5,128.5C 184.5,121.167 184.5,113.833 184.5,106.5C 181.5,106.5 178.5,106.5 175.5,106.5C 175.5,102.833 175.5,99.1667 175.5,95.5C 178.167,95.5 180.833,95.5 183.5,95.5C 183.821,90.3054 183.487,85.3054 182.5,80.5C 180.167,80.5 177.833,80.5 175.5,80.5C 175.5,73.5 175.5,66.5 175.5,59.5C 173.393,58.5318 171.059,58.1984 168.5,58.5C 168.5,55.1667 168.5,51.8333 168.5,48.5 Z"/></g>
<g><path style="opacity:1" fill="#fd9c3a" d="M 231.5,37.5 C 231.5,48.8333 231.5,60.1667 231.5,71.5C 224.719,71.7993 218.052,71.1326 211.5,69.5C 208.875,71.9902 207.542,71.1569 207.5,67C 207.84,61.34 208.174,55.34 208.5,49C 215.492,48.5004 222.492,48.3337 229.5,48.5C 228.92,44.351 229.586,40.6843 231.5,37.5 Z"/></g>
<g><path style="opacity:1" fill="#35200c" d="M 60.5,51.5 C 60.5,75.8333 60.5,100.167 60.5,124.5C 62.5,124.5 64.5,124.5 66.5,124.5C 66.5,126.833 66.5,129.167 66.5,131.5C 64.1667,131.5 61.8333,131.5 59.5,131.5C 59.5,129.167 59.5,126.833 59.5,124.5C 57.1667,124.5 54.8333,124.5 52.5,124.5C 54.6074,123.532 56.9407,123.198 59.5,123.5C 59.5,109.833 59.5,96.1667 59.5,82.5C 59.1724,71.9865 59.5058,61.6532 60.5,51.5 Z"/></g>
<g><path style="opacity:1" fill="#020100" d="M 60.5,51.5 C 62.5,51.5 64.5,51.5 66.5,51.5C 66.8333,51.5 67.1667,51.5 67.5,51.5C 67.5,53.8333 67.5,56.1667 67.5,58.5C 66.1667,65.8333 66.1667,73.1667 67.5,80.5C 67.5,94.8333 67.5,109.167 67.5,123.5C 66.8333,123.5 66.5,123.833 66.5,124.5C 64.5,124.5 62.5,124.5 60.5,124.5C 60.5,100.167 60.5,75.8333 60.5,51.5 Z"/></g>
<g><path style="opacity:1" fill="#514d48" d="M 88.5,58.5 C 86.1667,58.5 83.8333,58.5 81.5,58.5C 81.5,56.1667 81.5,53.8333 81.5,51.5C 83.8333,51.5 86.1667,51.5 88.5,51.5C 88.5,53.8333 88.5,56.1667 88.5,58.5 Z"/></g>
<g><path style="opacity:1" fill="#4d4845" d="M 67.5,58.5 C 69.8333,58.5 72.1667,58.5 74.5,58.5C 74.5,60.8333 74.5,63.1667 74.5,65.5C 74.5,65.8333 74.5,66.1667 74.5,66.5C 72.1667,66.5 69.8333,66.5 67.5,66.5C 67.5,63.8333 67.5,61.1667 67.5,58.5 Z"/></g>
<g><path style="opacity:1" fill="#27170d" d="M 88.5,58.5 C 107.833,58.5 127.167,58.5 146.5,58.5C 146.5,60.8333 146.5,63.1667 146.5,65.5C 127.167,65.5 107.833,65.5 88.5,65.5C 88.5,63.1667 88.5,60.8333 88.5,58.5 Z"/></g>
<g><path style="opacity:1" fill="#000000" d="M 175.5,59.5 C 175.5,66.5 175.5,73.5 175.5,80.5C 173.167,80.5 170.833,80.5 168.5,80.5C 168.5,73.5 168.5,66.5 168.5,59.5C 170.833,59.5 173.167,59.5 175.5,59.5 Z"/></g>
<g><path style="opacity:1" fill="#1b1919" d="M 67.5,58.5 C 67.5,61.1667 67.5,63.8333 67.5,66.5C 69.8333,66.5 72.1667,66.5 74.5,66.5C 74.5,71.1667 74.5,75.8333 74.5,80.5C 74.1667,80.5 73.8333,80.5 73.5,80.5C 71.5,80.5 69.5,80.5 67.5,80.5C 66.1667,73.1667 66.1667,65.8333 67.5,58.5 Z"/></g>
<g><path style="opacity:1" fill="#29180f" d="M 74.5,65.5 C 79.1667,65.5 83.8333,65.5 88.5,65.5C 88.5,68.1667 88.5,70.8333 88.5,73.5C 86.1667,73.5 83.8333,73.5 81.5,73.5C 81.5,75.8333 81.5,78.1667 81.5,80.5C 79.1667,80.5 76.8333,80.5 74.5,80.5C 74.5,75.8333 74.5,71.1667 74.5,66.5C 74.5,66.1667 74.5,65.8333 74.5,65.5 Z"/></g>
<g><path style="opacity:1" fill="#e3bb9d" d="M 88.5,65.5 C 107.833,65.5 127.167,65.5 146.5,65.5C 146.5,68.1667 146.5,70.8333 146.5,73.5C 148.833,73.5 151.167,73.5 153.5,73.5C 153.5,78.1667 153.5,82.8333 153.5,87.5C 141.5,87.5 129.5,87.5 117.5,87.5C 117.5,89.8333 117.5,92.1667 117.5,94.5C 117.5,94.8333 117.5,95.1667 117.5,95.5C 115.167,95.5 112.833,95.5 110.5,95.5C 110.5,100.167 110.5,104.833 110.5,109.5C 108.167,109.5 105.833,109.5 103.5,109.5C 103.5,104.5 103.5,99.5 103.5,94.5C 101.167,94.5 98.8333,94.5 96.5,94.5C 96.5,92.1667 96.5,89.8333 96.5,87.5C 93.8333,87.5 91.1667,87.5 88.5,87.5C 88.5,89.8333 88.5,92.1667 88.5,94.5C 83.8333,94.5 79.1667,94.5 74.5,94.5C 74.5,89.8333 74.5,85.1667 74.5,80.5C 76.8333,80.5 79.1667,80.5 81.5,80.5C 81.5,78.1667 81.5,75.8333 81.5,73.5C 83.8333,73.5 86.1667,73.5 88.5,73.5C 88.5,70.8333 88.5,68.1667 88.5,65.5 Z"/></g>
<g><path style="opacity:1" fill="#2c1a11" d="M 154.5,73.5 C 156.833,73.5 159.167,73.5 161.5,73.5C 161.5,83.1667 161.5,92.8333 161.5,102.5C 163.833,102.5 166.167,102.5 168.5,102.5C 168.5,109.5 168.5,116.5 168.5,123.5C 166.167,123.5 163.833,123.5 161.5,123.5C 161.5,118.833 161.5,114.167 161.5,109.5C 159.167,109.5 156.833,109.5 154.5,109.5C 154.5,107.167 154.5,104.833 154.5,102.5C 154.5,92.8333 154.5,83.1667 154.5,73.5 Z"/></g>
<g><path style="opacity:1" fill="#28170d" d="M 67.5,80.5 C 69.5,80.5 71.5,80.5 73.5,80.5C 73.1729,90.3478 73.5062,100.014 74.5,109.5C 74.5,111.833 74.5,114.167 74.5,116.5C 74.5,118.833 74.5,121.167 74.5,123.5C 72.1667,123.5 69.8333,123.5 67.5,123.5C 67.5,109.167 67.5,94.8333 67.5,80.5 Z"/></g>
<g><path style="opacity:1" fill="#514d48" d="M 168.5,80.5 C 170.833,80.5 173.167,80.5 175.5,80.5C 175.5,85.1667 175.5,89.8333 175.5,94.5C 173.167,94.5 170.833,94.5 168.5,94.5C 168.5,89.8333 168.5,85.1667 168.5,80.5 Z"/></g>
<g><path style="opacity:1" fill="#020202" d="M 175.5,80.5 C 177.833,80.5 180.167,80.5 182.5,80.5C 182.5,85.1667 182.5,89.8333 182.5,94.5C 180.167,94.5 177.833,94.5 175.5,94.5C 175.5,89.8333 175.5,85.1667 175.5,80.5 Z"/></g>
<g><path style="opacity:1" fill="#794914" d="M 182.5,80.5 C 183.487,85.3054 183.821,90.3054 183.5,95.5C 180.833,95.5 178.167,95.5 175.5,95.5C 175.5,95.1667 175.5,94.8333 175.5,94.5C 177.833,94.5 180.167,94.5 182.5,94.5C 182.5,89.8333 182.5,85.1667 182.5,80.5 Z"/></g>
<g><path style="opacity:1" fill="#fe8c1d" d="M -0.5,83.5 C 3.5,83.5 7.5,83.5 11.5,83.5C 11.5,90.8333 11.5,98.1667 11.5,105.5C 7.5,105.5 3.5,105.5 -0.5,105.5C -0.5,98.1667 -0.5,90.8333 -0.5,83.5 Z"/></g>
<g><path style="opacity:1" fill="#fda043" d="M 11.5,60.5 C 11.5,64.1667 11.5,67.8333 11.5,71.5C 19.1667,71.5 26.8333,71.5 34.5,71.5C 34.5,75.1667 34.5,78.8333 34.5,82.5C 38.1667,82.5 41.8333,82.5 45.5,82.5C 45.5,86.5 45.5,90.5 45.5,94.5C 49.1817,94.6653 52.8484,94.4986 56.5,94C 56.8266,89.7857 57.8266,85.9524 59.5,82.5C 59.5,96.1667 59.5,109.833 59.5,123.5C 56.9407,123.198 54.6074,123.532 52.5,124.5C 52.5,126.167 52.5,127.833 52.5,129.5C 50.1667,129.5 47.8333,129.5 45.5,129.5C 45.136,125.622 45.136,121.622 45.5,117.5C 41.774,117.823 38.1073,117.489 34.5,116.5C 34.7377,109.65 34.4043,102.65 33.5,95.5C 29.9062,94.5741 26.2396,94.2408 22.5,94.5C 22.5,98.1667 22.5,101.833 22.5,105.5C 18.8333,105.5 15.1667,105.5 11.5,105.5C 11.5,98.1667 11.5,90.8333 11.5,83.5C 8.03808,82.5184 4.37141,82.185 0.5,82.5C 0.5,78.8333 0.5,75.1667 0.5,71.5C 3.83333,71.5 7.16667,71.5 10.5,71.5C 10.185,67.6286 10.5184,63.9619 11.5,60.5 Z"/></g>
<g><path style="opacity:1" fill="#936c54" d="M 153.5,87.5 C 153.5,89.8333 153.5,92.1667 153.5,94.5C 141.5,94.5 129.5,94.5 117.5,94.5C 117.5,92.1667 117.5,89.8333 117.5,87.5C 129.5,87.5 141.5,87.5 153.5,87.5 Z"/></g>
<g><path style="opacity:1" fill="#fda246" d="M 231.5,25.5 C 231.5,29.5 231.5,33.5 231.5,37.5C 229.586,40.6843 228.92,44.351 229.5,48.5C 222.492,48.3337 215.492,48.5004 208.5,49C 208.174,55.34 207.84,61.34 207.5,67C 207.542,71.1569 208.875,71.9902 211.5,69.5C 218.052,71.1326 224.719,71.7993 231.5,71.5C 231.5,90.8333 231.5,110.167 231.5,129.5C 227.265,128.564 222.931,128.231 218.5,128.5C 218.5,124.833 218.5,121.167 218.5,117.5C 222.167,117.5 225.833,117.5 229.5,117.5C 229.789,113.894 229.456,110.394 228.5,107C 224.833,106.333 221.167,106.333 217.5,107C 216.862,108.707 216.862,110.54 217.5,112.5C 214.205,111.656 210.871,111.156 207.5,111C 210.002,113.212 213.002,114.045 216.5,113.5C 216.5,114.5 216.5,115.5 216.5,116.5C 213.167,116.5 209.833,116.5 206.5,116.5C 206.5,120.5 206.5,124.5 206.5,128.5C 198.836,128.889 191.17,129.222 183.5,129.5C 183.5,127.5 183.5,125.5 183.5,123.5C 180.833,123.5 178.167,123.5 175.5,123.5C 175.5,117.833 175.5,112.167 175.5,106.5C 178.5,106.5 181.5,106.5 184.5,106.5C 184.5,113.833 184.5,121.167 184.5,128.5C 187.833,128.5 191.167,128.5 194.5,128.5C 194.652,109.496 194.985,90.4961 195.5,71.5C 199.106,71.7892 202.606,71.4558 206,70.5C 206.5,63.5079 206.666,56.5079 206.5,49.5C 203.299,47.7397 199.633,46.9064 195.5,47C 198.726,45.8011 202.059,45.3011 205.5,45.5C 205.264,42.3915 205.597,39.3915 206.5,36.5C 210.112,37.5114 213.779,37.6781 217.5,37C 218.133,33.541 218.8,30.041 219.5,26.5C 223.429,25.5672 227.429,25.2338 231.5,25.5 Z"/></g>
<g><path style="opacity:1" fill="#4a3629" d="M 153.5,73.5 C 153.833,73.5 154.167,73.5 154.5,73.5C 154.5,83.1667 154.5,92.8333 154.5,102.5C 149.5,102.5 144.5,102.5 139.5,102.5C 139.5,104.833 139.5,107.167 139.5,109.5C 141.833,109.5 144.167,109.5 146.5,109.5C 146.5,111.833 146.5,114.167 146.5,116.5C 141.833,116.5 137.167,116.5 132.5,116.5C 132.5,114.167 132.5,111.833 132.5,109.5C 127.5,109.5 122.5,109.5 117.5,109.5C 117.5,104.833 117.5,100.167 117.5,95.5C 117.5,95.1667 117.5,94.8333 117.5,94.5C 129.5,94.5 141.5,94.5 153.5,94.5C 153.5,92.1667 153.5,89.8333 153.5,87.5C 153.5,82.8333 153.5,78.1667 153.5,73.5 Z"/></g>
<g><path style="opacity:1" fill="#473428" d="M 73.5,80.5 C 73.8333,80.5 74.1667,80.5 74.5,80.5C 74.5,85.1667 74.5,89.8333 74.5,94.5C 83.6517,95.4936 92.985,95.8269 102.5,95.5C 102.5,100.167 102.5,104.833 102.5,109.5C 100.5,109.5 98.5,109.5 96.5,109.5C 96.5,111.833 96.5,114.167 96.5,116.5C 89.1667,116.5 81.8333,116.5 74.5,116.5C 74.5,114.167 74.5,111.833 74.5,109.5C 73.5062,100.014 73.1729,90.3478 73.5,80.5 Z"/></g>
<g><path style="opacity:1" fill="#976344" d="M 74.5,109.5 C 74.5,107.167 74.5,104.833 74.5,102.5C 76.8333,102.5 79.1667,102.5 81.5,102.5C 81.5,104.833 81.5,107.167 81.5,109.5C 79.1667,109.5 76.8333,109.5 74.5,109.5 Z"/></g>
<g><path style="opacity:1" fill="#fe9c3c" d="M 45.5,129.5 C 34.1795,128.819 22.8462,128.486 11.5,128.5C 11.5,124.833 11.5,121.167 11.5,117.5C 7.39977,117.763 3.39977,117.43 -0.5,116.5C -0.5,112.833 -0.5,109.167 -0.5,105.5C 3.5,105.5 7.5,105.5 11.5,105.5C 15.1667,105.5 18.8333,105.5 22.5,105.5C 22.5,101.833 22.5,98.1667 22.5,94.5C 26.2396,94.2408 29.9062,94.5741 33.5,95.5C 34.4043,102.65 34.7377,109.65 34.5,116.5C 38.1073,117.489 41.774,117.823 45.5,117.5C 45.136,121.622 45.136,125.622 45.5,129.5 Z"/></g>
<g><path style="opacity:1" fill="#ecc7bb" d="M 103.5,109.5 C 105.833,109.5 108.167,109.5 110.5,109.5C 110.5,119.167 110.5,128.833 110.5,138.5C 105.833,138.5 101.167,138.5 96.5,138.5C 96.5,136.167 96.5,133.833 96.5,131.5C 98.8333,131.5 101.167,131.5 103.5,131.5C 103.5,129.167 103.5,126.833 103.5,124.5C 103.5,119.5 103.5,114.5 103.5,109.5 Z"/></g>
<g><path style="opacity:1" fill="#9a6445" d="M 117.5,95.5 C 117.5,100.167 117.5,104.833 117.5,109.5C 122.5,109.5 127.5,109.5 132.5,109.5C 132.5,111.833 132.5,114.167 132.5,116.5C 137.167,116.5 141.833,116.5 146.5,116.5C 146.5,118.833 146.5,121.167 146.5,123.5C 139.167,123.5 131.833,123.5 124.5,123.5C 124.5,133.167 124.5,142.833 124.5,152.5C 122.167,152.5 119.833,152.5 117.5,152.5C 112.833,152.5 108.167,152.5 103.5,152.5C 103.5,150.167 103.5,147.833 103.5,145.5C 101.167,145.5 98.8333,145.5 96.5,145.5C 96.5,143.167 96.5,140.833 96.5,138.5C 101.167,138.5 105.833,138.5 110.5,138.5C 110.5,128.833 110.5,119.167 110.5,109.5C 110.5,104.833 110.5,100.167 110.5,95.5C 112.833,95.5 115.167,95.5 117.5,95.5 Z"/></g>
<g><path style="opacity:1" fill="#90664d" d="M 154.5,102.5 C 154.5,104.833 154.5,107.167 154.5,109.5C 156.833,109.5 159.167,109.5 161.5,109.5C 161.5,114.167 161.5,118.833 161.5,123.5C 163.833,123.5 166.167,123.5 168.5,123.5C 168.5,126.167 168.5,128.833 168.5,131.5C 170.833,131.5 173.167,131.5 175.5,131.5C 175.5,138.5 175.5,145.5 175.5,152.5C 175.5,152.833 175.5,153.167 175.5,153.5C 173.167,153.5 170.833,153.5 168.5,153.5C 168.5,155.5 168.5,157.5 168.5,159.5C 166.167,159.5 163.833,159.5 161.5,159.5C 161.5,157.167 161.5,154.833 161.5,152.5C 159.167,152.5 156.833,152.5 154.5,152.5C 154.5,140.5 154.5,128.5 154.5,116.5C 151.833,116.5 149.167,116.5 146.5,116.5C 146.5,114.167 146.5,111.833 146.5,109.5C 144.167,109.5 141.833,109.5 139.5,109.5C 139.5,107.167 139.5,104.833 139.5,102.5C 144.5,102.5 149.5,102.5 154.5,102.5 Z"/></g>
<g><path style="opacity:1" fill="#956a4f" d="M 103.5,109.5 C 103.5,114.5 103.5,119.5 103.5,124.5C 91.5,124.5 79.5,124.5 67.5,124.5C 67.8016,127.059 67.4682,129.393 66.5,131.5C 66.5,129.167 66.5,126.833 66.5,124.5C 66.5,123.833 66.8333,123.5 67.5,123.5C 69.8333,123.5 72.1667,123.5 74.5,123.5C 74.5,121.167 74.5,118.833 74.5,116.5C 81.8333,116.5 89.1667,116.5 96.5,116.5C 96.5,114.167 96.5,111.833 96.5,109.5C 98.5,109.5 100.5,109.5 102.5,109.5C 102.5,104.833 102.5,100.167 102.5,95.5C 92.985,95.8269 83.6517,95.4936 74.5,94.5C 79.1667,94.5 83.8333,94.5 88.5,94.5C 88.5,92.1667 88.5,89.8333 88.5,87.5C 91.1667,87.5 93.8333,87.5 96.5,87.5C 96.5,89.8333 96.5,92.1667 96.5,94.5C 98.8333,94.5 101.167,94.5 103.5,94.5C 103.5,99.5 103.5,104.5 103.5,109.5 Z"/></g>
<g><path style="opacity:1" fill="#e4bb9d" d="M 146.5,116.5 C 149.167,116.5 151.833,116.5 154.5,116.5C 154.5,128.5 154.5,140.5 154.5,152.5C 154.5,153.167 154.167,153.5 153.5,153.5C 151.167,153.5 148.833,153.5 146.5,153.5C 146.5,155.833 146.5,158.167 146.5,160.5C 144.167,160.5 141.833,160.5 139.5,160.5C 139.5,158.167 139.5,155.833 139.5,153.5C 135.03,152.514 130.363,152.181 125.5,152.5C 125.5,143.167 125.5,133.833 125.5,124.5C 132.687,124.825 139.687,124.491 146.5,123.5C 146.5,121.167 146.5,118.833 146.5,116.5 Z"/></g>
<g><path style="opacity:1" fill="#000000" d="M 52.5,124.5 C 54.8333,124.5 57.1667,124.5 59.5,124.5C 59.5,126.833 59.5,129.167 59.5,131.5C 59.5,133.833 59.5,136.167 59.5,138.5C 59.5,143.167 59.5,147.833 59.5,152.5C 57.1667,152.5 54.8333,152.5 52.5,152.5C 52.5,144.833 52.5,137.167 52.5,129.5C 52.5,127.833 52.5,126.167 52.5,124.5 Z"/></g>
<g><path style="opacity:1" fill="#e6bd9f" d="M 103.5,124.5 C 103.5,126.833 103.5,129.167 103.5,131.5C 101.167,131.5 98.8333,131.5 96.5,131.5C 96.5,133.833 96.5,136.167 96.5,138.5C 95.5139,142.97 95.1805,147.637 95.5,152.5C 88.5,152.5 81.5,152.5 74.5,152.5C 74.5,155.167 74.5,157.833 74.5,160.5C 72.1667,160.5 69.8333,160.5 67.5,160.5C 67.5,153.167 67.5,145.833 67.5,138.5C 65.1667,138.5 62.8333,138.5 60.5,138.5C 60.1667,138.5 59.8333,138.5 59.5,138.5C 59.5,136.167 59.5,133.833 59.5,131.5C 61.8333,131.5 64.1667,131.5 66.5,131.5C 67.4682,129.393 67.8016,127.059 67.5,124.5C 79.5,124.5 91.5,124.5 103.5,124.5 Z"/></g>
<g><path style="opacity:1" fill="#b78b6e" d="M 146.5,123.5 C 139.687,124.491 132.687,124.825 125.5,124.5C 125.5,133.833 125.5,143.167 125.5,152.5C 130.363,152.181 135.03,152.514 139.5,153.5C 134.305,153.821 129.305,153.487 124.5,152.5C 124.5,142.833 124.5,133.167 124.5,123.5C 131.833,123.5 139.167,123.5 146.5,123.5 Z"/></g>
<g><path style="opacity:1" fill="#0b0502" d="M 175.5,95.5 C 175.5,99.1667 175.5,102.833 175.5,106.5C 175.5,112.167 175.5,117.833 175.5,123.5C 177.607,124.468 179.941,124.802 182.5,124.5C 182.5,133.833 182.5,143.167 182.5,152.5C 180.167,152.5 177.833,152.5 175.5,152.5C 175.5,145.5 175.5,138.5 175.5,131.5C 173.167,131.5 170.833,131.5 168.5,131.5C 168.5,128.833 168.5,126.167 168.5,123.5C 168.5,116.5 168.5,109.5 168.5,102.5C 168.5,100.167 168.5,97.8333 168.5,95.5C 170.833,95.5 173.167,95.5 175.5,95.5 Z"/></g>
<g><path style="opacity:1" fill="#794914" d="M 175.5,123.5 C 178.167,123.5 180.833,123.5 183.5,123.5C 183.5,125.5 183.5,127.5 183.5,129.5C 183.5,137.5 183.5,145.5 183.5,153.5C 180.833,153.5 178.167,153.5 175.5,153.5C 175.5,153.167 175.5,152.833 175.5,152.5C 177.833,152.5 180.167,152.5 182.5,152.5C 182.5,143.167 182.5,133.833 182.5,124.5C 179.941,124.802 177.607,124.468 175.5,123.5 Z"/></g>
<g><path style="opacity:1" fill="#fd9934" d="M 206.5,128.5 C 206.5,132.5 206.5,136.5 206.5,140.5C 210.167,140.5 213.833,140.5 217.5,140.5C 217.5,144.167 217.5,147.833 217.5,151.5C 210.167,151.5 202.833,151.5 195.5,151.5C 195.665,155.182 195.499,158.848 195,162.5C 191.589,163.293 188.089,163.793 184.5,164C 184.701,167.177 184.367,170.177 183.5,173C 176.221,174.247 168.888,174.747 161.5,174.5C 161.5,172.167 161.5,169.833 161.5,167.5C 163.833,167.5 166.167,167.5 168.5,167.5C 168.5,165.167 168.5,162.833 168.5,160.5C 171.059,160.802 173.393,160.468 175.5,159.5C 175.5,157.5 175.5,155.5 175.5,153.5C 178.167,153.5 180.833,153.5 183.5,153.5C 183.5,145.5 183.5,137.5 183.5,129.5C 191.17,129.222 198.836,128.889 206.5,128.5 Z"/></g>
<g><path style="opacity:1" fill="#fe9833" d="M 11.5,128.5 C 22.8462,128.486 34.1795,128.819 45.5,129.5C 47.8333,129.5 50.1667,129.5 52.5,129.5C 52.5,137.167 52.5,144.833 52.5,152.5C 54.6074,153.468 56.9407,153.802 59.5,153.5C 59.5,156.833 59.5,160.167 59.5,163.5C 51.0919,163.717 42.7586,163.051 34.5,161.5C 34.5997,159.007 34.933,156.507 35.5,154C 34.6971,149.586 34.1971,145.086 34,140.5C 33.3333,139.833 32.6667,139.167 32,138.5C 29.1737,139.213 26.3404,139.88 23.5,140.5C 19.5,140.5 15.5,140.5 11.5,140.5C 11.5,136.5 11.5,132.5 11.5,128.5 Z"/></g>
<g><path style="opacity:1" fill="#423226" d="M 161.5,138.5 C 163.833,138.5 166.167,138.5 168.5,138.5C 168.5,140.833 168.5,143.167 168.5,145.5C 166.167,145.5 163.833,145.5 161.5,145.5C 161.5,143.167 161.5,140.833 161.5,138.5 Z"/></g>
<g><path style="opacity:1" fill="#fe8d23" d="M -0.5,116.5 C 3.39977,117.43 7.39977,117.763 11.5,117.5C 11.5,121.167 11.5,124.833 11.5,128.5C 11.5,132.5 11.5,136.5 11.5,140.5C 15.5,140.5 19.5,140.5 23.5,140.5C 22.5701,144.4 22.2367,148.4 22.5,152.5C 19.1667,152.5 15.8333,152.5 12.5,152.5C 11.9625,159.822 11.6291,167.155 11.5,174.5C 15.1667,174.5 18.8333,174.5 22.5,174.5C 22.2288,179.913 22.7288,185.246 24,190.5C 32.4968,191.709 32.3301,192.875 23.5,194C 24.3805,194.708 25.0472,195.542 25.5,196.5C 20.8969,197.383 16.2303,197.717 11.5,197.5C 11.5,190.167 11.5,182.833 11.5,175.5C 7.39977,175.763 3.39977,175.43 -0.5,174.5C -0.5,155.167 -0.5,135.833 -0.5,116.5 Z"/></g>
<g><path style="opacity:1" fill="#493629" d="M 96.5,145.5 C 98.8333,145.5 101.167,145.5 103.5,145.5C 103.5,147.833 103.5,150.167 103.5,152.5C 101.393,153.468 99.0593,153.802 96.5,153.5C 96.5,150.833 96.5,148.167 96.5,145.5 Z"/></g>
<g><path style="opacity:1" fill="#fe952f" d="M 231.5,129.5 C 231.5,144.5 231.5,159.5 231.5,174.5C 229.586,177.684 228.92,181.351 229.5,185.5C 222.576,186.248 215.576,186.248 208.5,185.5C 208.5,184.167 208.5,182.833 208.5,181.5C 220.429,181.142 220.429,180.142 208.5,178.5C 208.709,177.914 209.043,177.414 209.5,177C 212.167,176.667 214.833,176.333 217.5,176C 214.11,175.754 210.777,175.254 207.5,174.5C 206.511,178.107 206.177,181.774 206.5,185.5C 202.486,185.334 198.486,185.501 194.5,186C 195.435,188.381 195.768,190.881 195.5,193.5C 198.898,193.18 202.232,193.513 205.5,194.5C 198.682,196.711 191.682,197.878 184.5,198C 183.54,201.73 183.207,205.563 183.5,209.5C 183.5,216.833 183.5,224.167 183.5,231.5C 178.5,231.5 173.5,231.5 168.5,231.5C 168.5,227.167 168.5,222.833 168.5,218.5C 166.167,218.5 163.833,218.5 161.5,218.5C 161.5,211.5 161.5,204.5 161.5,197.5C 168.507,197.941 175.507,198.108 182.5,198C 183.46,194.27 183.793,190.437 183.5,186.5C 176.167,186.5 168.833,186.5 161.5,186.5C 161.5,182.5 161.5,178.5 161.5,174.5C 168.888,174.747 176.221,174.247 183.5,173C 184.367,170.177 184.701,167.177 184.5,164C 188.089,163.793 191.589,163.293 195,162.5C 195.499,158.848 195.665,155.182 195.5,151.5C 202.833,151.5 210.167,151.5 217.5,151.5C 217.5,147.833 217.5,144.167 217.5,140.5C 213.833,140.5 210.167,140.5 206.5,140.5C 206.5,136.5 206.5,132.5 206.5,128.5C 206.5,124.5 206.5,120.5 206.5,116.5C 209.833,116.5 213.167,116.5 216.5,116.5C 216.5,115.5 216.5,114.5 216.5,113.5C 213.002,114.045 210.002,113.212 207.5,111C 210.871,111.156 214.205,111.656 217.5,112.5C 216.862,110.54 216.862,108.707 217.5,107C 221.167,106.333 224.833,106.333 228.5,107C 229.456,110.394 229.789,113.894 229.5,117.5C 225.833,117.5 222.167,117.5 218.5,117.5C 218.5,121.167 218.5,124.833 218.5,128.5C 222.931,128.231 227.265,128.564 231.5,129.5 Z"/></g>
<g><path style="opacity:1" fill="#553923" d="M 59.5,138.5 C 59.8333,138.5 60.1667,138.5 60.5,138.5C 60.5,143.167 60.5,147.833 60.5,152.5C 62.7354,152.205 64.7354,152.539 66.5,153.5C 64.5,153.5 62.5,153.5 60.5,153.5C 60.5,158.167 60.5,162.833 60.5,167.5C 59.5655,166.432 59.2322,165.099 59.5,163.5C 59.5,160.167 59.5,156.833 59.5,153.5C 56.9407,153.802 54.6074,153.468 52.5,152.5C 54.8333,152.5 57.1667,152.5 59.5,152.5C 59.5,147.833 59.5,143.167 59.5,138.5 Z"/></g>
<g><path style="opacity:1" fill="#000000" d="M 66.5,153.5 C 66.5,158.167 66.5,162.833 66.5,167.5C 64.5,167.5 62.5,167.5 60.5,167.5C 60.5,162.833 60.5,158.167 60.5,153.5C 62.5,153.5 64.5,153.5 66.5,153.5 Z"/></g>
<g><path style="opacity:1" fill="#926b53" d="M 60.5,138.5 C 62.8333,138.5 65.1667,138.5 67.5,138.5C 67.5,145.833 67.5,153.167 67.5,160.5C 69.8333,160.5 72.1667,160.5 74.5,160.5C 74.5,157.833 74.5,155.167 74.5,152.5C 81.5,152.5 88.5,152.5 95.5,152.5C 95.1805,147.637 95.5139,142.97 96.5,138.5C 96.5,140.833 96.5,143.167 96.5,145.5C 96.5,148.167 96.5,150.833 96.5,153.5C 99.0593,153.802 101.393,153.468 103.5,152.5C 108.167,152.5 112.833,152.5 117.5,152.5C 117.5,155.167 117.5,157.833 117.5,160.5C 110.167,160.5 102.833,160.5 95.5,160.5C 93.1667,160.5 90.8333,160.5 88.5,160.5C 88.5,162.833 88.5,165.167 88.5,167.5C 86.1667,167.5 83.8333,167.5 81.5,167.5C 81.5,172.5 81.5,177.5 81.5,182.5C 79.1667,182.5 76.8333,182.5 74.5,182.5C 74.5,177.5 74.5,172.5 74.5,167.5C 72.1667,167.5 69.8333,167.5 67.5,167.5C 67.5,174.5 67.5,181.5 67.5,188.5C 67.5,188.833 67.5,189.167 67.5,189.5C 66.5084,182.352 66.175,175.019 66.5,167.5C 66.5,162.833 66.5,158.167 66.5,153.5C 64.7354,152.539 62.7354,152.205 60.5,152.5C 60.5,147.833 60.5,143.167 60.5,138.5 Z"/></g>
<g><path style="opacity:1" fill="#453328" d="M 88.5,160.5 C 86.1667,160.5 83.8333,160.5 81.5,160.5C 81.5,158.167 81.5,155.833 81.5,153.5C 83.8333,153.5 86.1667,153.5 88.5,153.5C 88.5,155.833 88.5,158.167 88.5,160.5 Z"/></g>
<g><path style="opacity:1" fill="#453328" d="M 117.5,152.5 C 119.833,152.5 122.167,152.5 124.5,152.5C 129.305,153.487 134.305,153.821 139.5,153.5C 139.5,155.833 139.5,158.167 139.5,160.5C 139.5,162.833 139.5,165.167 139.5,167.5C 137.167,167.5 134.833,167.5 132.5,167.5C 132.5,165.167 132.5,162.833 132.5,160.5C 127.5,160.5 122.5,160.5 117.5,160.5C 117.5,157.833 117.5,155.167 117.5,152.5 Z"/></g>
<g><path style="opacity:1" fill="#906951" d="M 153.5,153.5 C 153.5,160.5 153.5,167.5 153.5,174.5C 148.833,174.5 144.167,174.5 139.5,174.5C 139.5,177.167 139.5,179.833 139.5,182.5C 137.167,182.5 134.833,182.5 132.5,182.5C 132.5,179.833 132.5,177.167 132.5,174.5C 132.5,172.167 132.5,169.833 132.5,167.5C 134.833,167.5 137.167,167.5 139.5,167.5C 139.5,165.167 139.5,162.833 139.5,160.5C 141.833,160.5 144.167,160.5 146.5,160.5C 146.5,158.167 146.5,155.833 146.5,153.5C 148.833,153.5 151.167,153.5 153.5,153.5 Z"/></g>
<g><path style="opacity:1" fill="#453123" d="M 154.5,152.5 C 156.833,152.5 159.167,152.5 161.5,152.5C 161.5,154.833 161.5,157.167 161.5,159.5C 163.833,159.5 166.167,159.5 168.5,159.5C 170.833,159.5 173.167,159.5 175.5,159.5C 173.393,160.468 171.059,160.802 168.5,160.5C 166.167,160.5 163.833,160.5 161.5,160.5C 161.5,162.833 161.5,165.167 161.5,167.5C 161.5,169.833 161.5,172.167 161.5,174.5C 161.5,178.5 161.5,182.5 161.5,186.5C 161.5,190.167 161.5,193.833 161.5,197.5C 161.5,204.5 161.5,211.5 161.5,218.5C 161.167,218.5 160.833,218.5 160.5,218.5C 160.5,201.5 160.5,184.5 160.5,167.5C 158.5,167.5 156.5,167.5 154.5,167.5C 154.5,169.833 154.5,172.167 154.5,174.5C 154.167,174.5 153.833,174.5 153.5,174.5C 153.5,167.5 153.5,160.5 153.5,153.5C 154.167,153.5 154.5,153.167 154.5,152.5 Z"/></g>
<g><path style="opacity:1" fill="#000000" d="M 175.5,153.5 C 175.5,155.5 175.5,157.5 175.5,159.5C 173.167,159.5 170.833,159.5 168.5,159.5C 168.5,157.5 168.5,155.5 168.5,153.5C 170.833,153.5 173.167,153.5 175.5,153.5 Z"/></g>
<g><path style="opacity:1" fill="#a06f57" d="M 117.5,160.5 C 122.5,160.5 127.5,160.5 132.5,160.5C 132.5,162.833 132.5,165.167 132.5,167.5C 127.5,167.5 122.5,167.5 117.5,167.5C 117.5,165.167 117.5,162.833 117.5,160.5 Z"/></g>
<g><path style="opacity:1" fill="#000000" d="M 168.5,160.5 C 168.5,162.833 168.5,165.167 168.5,167.5C 166.167,167.5 163.833,167.5 161.5,167.5C 161.5,165.167 161.5,162.833 161.5,160.5C 163.833,160.5 166.167,160.5 168.5,160.5 Z"/></g>
<g><path style="opacity:1" fill="#fe8f27" d="M 59.5,163.5 C 59.2322,165.099 59.5655,166.432 60.5,167.5C 62.5,167.5 64.5,167.5 66.5,167.5C 66.175,175.019 66.5084,182.352 67.5,189.5C 69.5,189.5 71.5,189.5 73.5,189.5C 73.5,198.833 73.5,208.167 73.5,217.5C 71.1667,217.5 68.8333,217.5 66.5,217.5C 66.5,218.833 66.5,220.167 66.5,221.5C 55.8497,220.762 45.183,220.428 34.5,220.5C 34.5,216.833 34.5,213.167 34.5,209.5C 38.1667,209.5 41.8333,209.5 45.5,209.5C 45.797,205.233 45.4637,201.066 44.5,197C 38.106,196.9 31.7726,196.734 25.5,196.5C 25.0472,195.542 24.3805,194.708 23.5,194C 32.3301,192.875 32.4968,191.709 24,190.5C 22.7288,185.246 22.2288,179.913 22.5,174.5C 18.8333,174.5 15.1667,174.5 11.5,174.5C 11.6291,167.155 11.9625,159.822 12.5,152.5C 15.8333,152.5 19.1667,152.5 22.5,152.5C 22.2367,148.4 22.5701,144.4 23.5,140.5C 26.3404,139.88 29.1737,139.213 32,138.5C 32.6667,139.167 33.3333,139.833 34,140.5C 34.1971,145.086 34.6971,149.586 35.5,154C 34.933,156.507 34.5997,159.007 34.5,161.5C 42.7586,163.051 51.0919,163.717 59.5,163.5 Z"/></g>
<g><path style="opacity:1" fill="#040302" d="M 74.5,182.5 C 74.5,184.5 74.5,186.5 74.5,188.5C 72.1667,188.5 69.8333,188.5 67.5,188.5C 67.5,181.5 67.5,174.5 67.5,167.5C 69.8333,167.5 72.1667,167.5 74.5,167.5C 74.5,172.5 74.5,177.5 74.5,182.5 Z"/></g>
<g><path style="opacity:1" fill="#e4bb9d" d="M 88.5,167.5 C 88.5,169.833 88.5,172.167 88.5,174.5C 90.8333,174.5 93.1667,174.5 95.5,174.5C 95.5,179.5 95.5,184.5 95.5,189.5C 93.1667,189.5 90.8333,189.5 88.5,189.5C 88.5,187.167 88.5,184.833 88.5,182.5C 86.1667,182.5 83.8333,182.5 81.5,182.5C 81.5,177.5 81.5,172.5 81.5,167.5C 83.8333,167.5 86.1667,167.5 88.5,167.5 Z"/></g>
<g><path style="opacity:1" fill="#ebc4b5" d="M 88.5,160.5 C 90.8333,160.5 93.1667,160.5 95.5,160.5C 95.5,162.833 95.5,165.167 95.5,167.5C 100.5,167.5 105.5,167.5 110.5,167.5C 110.5,169.833 110.5,172.167 110.5,174.5C 105.833,174.5 101.167,174.5 96.5,174.5C 96.1667,174.5 95.8333,174.5 95.5,174.5C 93.1667,174.5 90.8333,174.5 88.5,174.5C 88.5,172.167 88.5,169.833 88.5,167.5C 88.5,165.167 88.5,162.833 88.5,160.5 Z"/></g>
<g><path style="opacity:1" fill="#eaaa90" d="M 95.5,160.5 C 102.833,160.5 110.167,160.5 117.5,160.5C 117.5,162.833 117.5,165.167 117.5,167.5C 122.5,167.5 127.5,167.5 132.5,167.5C 132.5,169.833 132.5,172.167 132.5,174.5C 127.5,174.5 122.5,174.5 117.5,174.5C 115.167,174.5 112.833,174.5 110.5,174.5C 110.5,172.167 110.5,169.833 110.5,167.5C 105.5,167.5 100.5,167.5 95.5,167.5C 95.5,165.167 95.5,162.833 95.5,160.5 Z"/></g>
<g><path style="opacity:1" fill="#000000" d="M 160.5,218.5 C 158.5,218.5 156.5,218.5 154.5,218.5C 154.5,218.167 154.5,217.833 154.5,217.5C 154.5,203.167 154.5,188.833 154.5,174.5C 154.5,172.167 154.5,169.833 154.5,167.5C 156.5,167.5 158.5,167.5 160.5,167.5C 160.5,184.5 160.5,201.5 160.5,218.5 Z"/></g>
<g><path style="opacity:1" fill="#fe922e" d="M 229.5,185.5 C 229.5,189.5 229.5,193.5 229.5,197.5C 225.833,197.5 222.167,197.5 218.5,197.5C 217.963,204.722 217.963,211.722 218.5,218.5C 210.885,219.773 203.219,220.44 195.5,220.5C 195.5,216.833 195.5,213.167 195.5,209.5C 191.5,209.5 187.5,209.5 183.5,209.5C 183.207,205.563 183.54,201.73 184.5,198C 191.682,197.878 198.682,196.711 205.5,194.5C 202.232,193.513 198.898,193.18 195.5,193.5C 195.768,190.881 195.435,188.381 194.5,186C 198.486,185.501 202.486,185.334 206.5,185.5C 206.177,181.774 206.511,178.107 207.5,174.5C 210.777,175.254 214.11,175.754 217.5,176C 214.833,176.333 212.167,176.667 209.5,177C 209.043,177.414 208.709,177.914 208.5,178.5C 220.429,180.142 220.429,181.142 208.5,181.5C 208.5,182.833 208.5,184.167 208.5,185.5C 215.576,186.248 222.576,186.248 229.5,185.5 Z"/></g>
<g><path style="opacity:1" fill="#916b53" d="M 95.5,174.5 C 95.8333,174.5 96.1667,174.5 96.5,174.5C 96.5,177.167 96.5,179.833 96.5,182.5C 101.167,182.5 105.833,182.5 110.5,182.5C 110.5,179.833 110.5,177.167 110.5,174.5C 112.833,174.5 115.167,174.5 117.5,174.5C 117.5,179.5 117.5,184.5 117.5,189.5C 120.167,189.5 122.833,189.5 125.5,189.5C 125.5,191.833 125.5,194.167 125.5,196.5C 122.833,196.5 120.167,196.5 117.5,196.5C 117.5,198.833 117.5,201.167 117.5,203.5C 107.833,203.5 98.1667,203.5 88.5,203.5C 88.5,198.833 88.5,194.167 88.5,189.5C 90.8333,189.5 93.1667,189.5 95.5,189.5C 95.5,184.5 95.5,179.5 95.5,174.5 Z"/></g>
<g><path style="opacity:1" fill="#4b382c" d="M 96.5,174.5 C 101.167,174.5 105.833,174.5 110.5,174.5C 110.5,177.167 110.5,179.833 110.5,182.5C 105.833,182.5 101.167,182.5 96.5,182.5C 96.5,179.833 96.5,177.167 96.5,174.5 Z"/></g>
<g><path style="opacity:1" fill="#e2b99b" d="M 117.5,174.5 C 122.5,174.5 127.5,174.5 132.5,174.5C 132.5,177.167 132.5,179.833 132.5,182.5C 130.167,182.5 127.833,182.5 125.5,182.5C 125.5,184.833 125.5,187.167 125.5,189.5C 122.833,189.5 120.167,189.5 117.5,189.5C 117.5,184.5 117.5,179.5 117.5,174.5 Z"/></g>
<g><path style="opacity:1" fill="#3f2e23" d="M 153.5,174.5 C 153.5,176.833 153.5,179.167 153.5,181.5C 151.167,181.5 148.833,181.5 146.5,181.5C 146.5,186.5 146.5,191.5 146.5,196.5C 148.833,196.5 151.167,196.5 153.5,196.5C 153.175,203.687 153.509,210.687 154.5,217.5C 154.5,217.833 154.5,218.167 154.5,218.5C 153.515,222.634 153.182,226.968 153.5,231.5C 151.167,231.5 148.833,231.5 146.5,231.5C 146.5,222.167 146.5,212.833 146.5,203.5C 144.167,203.5 141.833,203.5 139.5,203.5C 139.5,206.167 139.5,208.833 139.5,211.5C 134.833,211.5 130.167,211.5 125.5,211.5C 125.5,213.833 125.5,216.167 125.5,218.5C 113.167,218.5 100.833,218.5 88.5,218.5C 88.5,216.167 88.5,213.833 88.5,211.5C 90.8333,211.5 93.1667,211.5 95.5,211.5C 95.5,213.5 95.5,215.5 95.5,217.5C 105.167,217.5 114.833,217.5 124.5,217.5C 124.5,215.167 124.5,212.833 124.5,210.5C 115.167,210.5 105.833,210.5 96.5,210.5C 96.5,208.5 96.5,206.5 96.5,204.5C 93.8333,204.5 91.1667,204.5 88.5,204.5C 88.5,206.5 88.5,208.5 88.5,210.5C 86.1667,210.5 83.8333,210.5 81.5,210.5C 81.5,203.5 81.5,196.5 81.5,189.5C 83.8333,189.5 86.1667,189.5 88.5,189.5C 88.5,194.167 88.5,198.833 88.5,203.5C 98.1667,203.5 107.833,203.5 117.5,203.5C 117.5,201.167 117.5,198.833 117.5,196.5C 120.167,196.5 122.833,196.5 125.5,196.5C 125.5,194.167 125.5,191.833 125.5,189.5C 127.833,189.5 130.167,189.5 132.5,189.5C 132.5,187.167 132.5,184.833 132.5,182.5C 134.833,182.5 137.167,182.5 139.5,182.5C 139.5,179.833 139.5,177.167 139.5,174.5C 144.167,174.5 148.833,174.5 153.5,174.5 Z"/></g>
<g><path style="opacity:1" fill="#402f23" d="M 74.5,182.5 C 76.8333,182.5 79.1667,182.5 81.5,182.5C 81.5,184.833 81.5,187.167 81.5,189.5C 79.1667,189.5 76.8333,189.5 74.5,189.5C 74.1667,189.5 73.8333,189.5 73.5,189.5C 71.5,189.5 69.5,189.5 67.5,189.5C 67.5,189.167 67.5,188.833 67.5,188.5C 69.8333,188.5 72.1667,188.5 74.5,188.5C 74.5,186.5 74.5,184.5 74.5,182.5 Z"/></g>
<g><path style="opacity:1" fill="#8e6850" d="M 81.5,182.5 C 83.8333,182.5 86.1667,182.5 88.5,182.5C 88.5,184.833 88.5,187.167 88.5,189.5C 86.1667,189.5 83.8333,189.5 81.5,189.5C 81.5,187.167 81.5,184.833 81.5,182.5 Z"/></g>
<g><path style="opacity:1" fill="#8d674f" d="M 132.5,182.5 C 132.5,184.833 132.5,187.167 132.5,189.5C 130.167,189.5 127.833,189.5 125.5,189.5C 125.5,187.167 125.5,184.833 125.5,182.5C 127.833,182.5 130.167,182.5 132.5,182.5 Z"/></g>
<g><path style="opacity:1" fill="#26170f" d="M 153.5,174.5 C 153.833,174.5 154.167,174.5 154.5,174.5C 154.5,188.833 154.5,203.167 154.5,217.5C 153.509,210.687 153.175,203.687 153.5,196.5C 151.167,196.5 148.833,196.5 146.5,196.5C 146.5,191.5 146.5,186.5 146.5,181.5C 148.833,181.5 151.167,181.5 153.5,181.5C 153.5,179.167 153.5,176.833 153.5,174.5 Z"/></g>
<g><path style="opacity:1" fill="#fea144" d="M 161.5,186.5 C 168.833,186.5 176.167,186.5 183.5,186.5C 183.793,190.437 183.46,194.27 182.5,198C 175.507,198.108 168.507,197.941 161.5,197.5C 161.5,193.833 161.5,190.167 161.5,186.5 Z"/></g>
<g><path style="opacity:1" fill="#aa681c" d="M 73.5,189.5 C 73.8333,189.5 74.1667,189.5 74.5,189.5C 74.5,199.167 74.5,208.833 74.5,218.5C 72.1667,218.5 69.8333,218.5 67.5,218.5C 67.5,220.833 67.5,223.167 67.5,225.5C 65.5,225.5 63.5,225.5 61.5,225.5C 61.5,227.5 61.5,229.5 61.5,231.5C 61.1667,231.5 60.8333,231.5 60.5,231.5C 60.5,229.167 60.5,226.833 60.5,224.5C 62.5,224.5 64.5,224.5 66.5,224.5C 66.5,223.5 66.5,222.5 66.5,221.5C 66.5,220.167 66.5,218.833 66.5,217.5C 68.8333,217.5 71.1667,217.5 73.5,217.5C 73.5,208.167 73.5,198.833 73.5,189.5 Z"/></g>
<g><path style="opacity:1" fill="#010100" d="M 74.5,189.5 C 76.8333,189.5 79.1667,189.5 81.5,189.5C 81.5,196.5 81.5,203.5 81.5,210.5C 81.5,213.167 81.5,215.833 81.5,218.5C 79.1667,218.5 76.8333,218.5 74.5,218.5C 74.5,208.833 74.5,199.167 74.5,189.5 Z"/></g>
<g><path style="opacity:1" fill="#e6be9f" d="M 96.5,189.5 C 101.167,189.5 105.833,189.5 110.5,189.5C 110.5,191.833 110.5,194.167 110.5,196.5C 105.833,196.5 101.167,196.5 96.5,196.5C 96.5,194.167 96.5,191.833 96.5,189.5 Z"/></g>
<g><path style="opacity:1" fill="#906951" d="M 146.5,231.5 C 120.5,231.5 94.5,231.5 68.5,231.5C 68.5,229.5 68.5,227.5 68.5,225.5C 70.5,225.5 72.5,225.5 74.5,225.5C 74.5,223.167 74.5,220.833 74.5,218.5C 76.8333,218.5 79.1667,218.5 81.5,218.5C 81.5,215.833 81.5,213.167 81.5,210.5C 83.8333,210.5 86.1667,210.5 88.5,210.5C 88.5,210.833 88.5,211.167 88.5,211.5C 88.5,213.833 88.5,216.167 88.5,218.5C 100.833,218.5 113.167,218.5 125.5,218.5C 125.5,216.167 125.5,213.833 125.5,211.5C 130.167,211.5 134.833,211.5 139.5,211.5C 139.5,208.833 139.5,206.167 139.5,203.5C 141.833,203.5 144.167,203.5 146.5,203.5C 146.5,212.833 146.5,222.167 146.5,231.5 Z"/></g>
<g><path style="opacity:1" fill="#fe8f33" d="M -0.5,174.5 C 3.39977,175.43 7.39977,175.763 11.5,175.5C 11.5,182.833 11.5,190.167 11.5,197.5C 16.2303,197.717 20.8969,197.383 25.5,196.5C 31.7726,196.734 38.106,196.9 44.5,197C 45.4637,201.066 45.797,205.233 45.5,209.5C 41.8333,209.5 38.1667,209.5 34.5,209.5C 34.5,213.167 34.5,216.833 34.5,220.5C 34.5,224.167 34.5,227.833 34.5,231.5C 22.8333,231.5 11.1667,231.5 -0.5,231.5C -0.5,212.5 -0.5,193.5 -0.5,174.5 Z"/></g>
<g><path style="opacity:1" fill="#2a190f" d="M 88.5,211.5 C 88.5,211.167 88.5,210.833 88.5,210.5C 88.5,208.5 88.5,206.5 88.5,204.5C 91.1667,204.5 93.8333,204.5 96.5,204.5C 96.5,206.5 96.5,208.5 96.5,210.5C 105.833,210.5 115.167,210.5 124.5,210.5C 124.5,212.833 124.5,215.167 124.5,217.5C 114.833,217.5 105.167,217.5 95.5,217.5C 95.5,215.5 95.5,213.5 95.5,211.5C 93.1667,211.5 90.8333,211.5 88.5,211.5 Z"/></g>
<g><path style="opacity:1" fill="#88644d" d="M 154.5,218.5 C 156.5,218.5 158.5,218.5 160.5,218.5C 160.833,218.5 161.167,218.5 161.5,218.5C 161.5,222.833 161.5,227.167 161.5,231.5C 158.833,231.5 156.167,231.5 153.5,231.5C 153.182,226.968 153.515,222.634 154.5,218.5 Z"/></g>
<g><path style="opacity:1" fill="#000000" d="M 161.5,218.5 C 163.833,218.5 166.167,218.5 168.5,218.5C 168.5,222.833 168.5,227.167 168.5,231.5C 166.167,231.5 163.833,231.5 161.5,231.5C 161.5,227.167 161.5,222.833 161.5,218.5 Z"/></g>
<g><path style="opacity:1" fill="#fe8823" d="M 231.5,174.5 C 231.5,193.5 231.5,212.5 231.5,231.5C 215.5,231.5 199.5,231.5 183.5,231.5C 183.5,224.167 183.5,216.833 183.5,209.5C 187.5,209.5 191.5,209.5 195.5,209.5C 195.5,213.167 195.5,216.833 195.5,220.5C 203.219,220.44 210.885,219.773 218.5,218.5C 217.963,211.722 217.963,204.722 218.5,197.5C 222.167,197.5 225.833,197.5 229.5,197.5C 229.5,193.5 229.5,189.5 229.5,185.5C 228.92,181.351 229.586,177.684 231.5,174.5 Z"/></g>
<g><path style="opacity:1" fill="#fd841e" d="M 34.5,220.5 C 45.183,220.428 55.8497,220.762 66.5,221.5C 66.5,222.5 66.5,223.5 66.5,224.5C 64.5,224.5 62.5,224.5 60.5,224.5C 60.5,226.833 60.5,229.167 60.5,231.5C 51.8333,231.5 43.1667,231.5 34.5,231.5C 34.5,227.833 34.5,224.167 34.5,220.5 Z"/></g>
<g><path style="opacity:1" fill="#030201" d="M 74.5,218.5 C 74.5,220.833 74.5,223.167 74.5,225.5C 72.5,225.5 70.5,225.5 68.5,225.5C 68.5,227.5 68.5,229.5 68.5,231.5C 66.1667,231.5 63.8333,231.5 61.5,231.5C 61.5,229.5 61.5,227.5 61.5,225.5C 63.5,225.5 65.5,225.5 67.5,225.5C 67.5,223.167 67.5,220.833 67.5,218.5C 69.8333,218.5 72.1667,218.5 74.5,218.5 Z"/></g>
</svg>
