<?xml version="1.0" standalone="no"?>
<!DOCTYPE svg PUBLIC "-//W3C//DTD SVG 20010904//EN"
 "http://www.w3.org/TR/2001/REC-SVG-20010904/DTD/svg10.dtd">
<svg version="1.0" xmlns="http://www.w3.org/2000/svg"
 width="232.000000pt" height="232.000000pt" viewBox="0 0 232.000000 232.000000"
 preserveAspectRatio="xMidYMid meet">
<metadata>
Created by potrace 1.14, written by Peter Selinger 2001-2017
</metadata>
<g transform="translate(0.000000,232.000000) scale(0.100000,-0.100000)"
fill="#000000" stroke="none">
<path d="M0 1160 l0 -1160 1160 0 1160 0 0 1160 0 1160 -1160 0 -1160 0 0
-1160z m1141 968 c-5 -40 -6 -41 -9 -10 -3 30 -6 32 -42 32 -21 0 -42 5 -45
10 -4 6 14 10 47 10 l54 0 -5 -42z m229 32 c0 -5 -16 -10 -36 -10 -35 0 -36
-1 -32 -30 4 -24 1 -30 -14 -30 -14 0 -18 8 -18 40 l0 40 50 0 c28 0 50 -4 50
-10z m-6 -55 c-4 -8 -8 -15 -10 -15 -2 0 -4 7 -4 15 0 8 4 15 10 15 5 0 7 -7
4 -15z m-764 -426 c0 -11 -4 -17 -10 -14 -5 3 -10 13 -10 21 0 8 5 14 10 14 6
0 10 -9 10 -21z m870 -64 c0 -33 2 -35 35 -35 l35 0 0 -70 0 -70 -180 0 -180
0 0 -35 c0 -33 -2 -35 -35 -35 l-35 0 0 -220 0 -220 -75 0 -75 0 0 -70 0 -70
-110 0 -110 0 0 -35 c0 -32 -2 -35 -30 -35 l-30 0 0 105 0 105 -35 0 c-33 0
-35 2 -35 35 0 33 2 35 35 35 33 0 35 2 35 35 l0 35 180 0 180 0 0 150 0 150
-35 0 c-33 0 -35 2 -35 35 0 34 -1 35 -40 35 -39 0 -40 -1 -40 -35 l0 -35 -70
0 -70 0 0 70 0 70 35 0 c33 0 35 2 35 35 0 34 1 35 40 35 39 0 40 1 40 35 l0
35 285 0 285 0 0 -35z m70 -650 l0 -175 -35 0 c-33 0 -35 -2 -35 -35 0 -33 -2
-35 -35 -35 -33 0 -35 2 -35 35 l0 35 -70 0 -70 0 0 140 0 140 110 0 110 0 0
35 c0 32 2 35 30 35 l30 0 0 -175z m-580 -290 l0 -35 75 0 75 0 0 -35 0 -35
-75 0 -75 0 0 -70 0 -70 -30 0 c-28 0 -30 3 -30 35 0 34 -1 35 -40 35 l-40 0
0 70 0 70 40 0 c39 0 40 1 40 35 0 32 2 35 30 35 28 0 30 -3 30 -35z m360
-140 c0 -33 -2 -35 -35 -35 -33 0 -35 -2 -35 -35 0 -32 -2 -35 -30 -35 l-30 0
0 70 0 70 65 0 65 0 0 -35z m-210 -150 l0 -35 -70 0 -70 0 0 35 0 35 70 0 70
0 0 -35z"/>
</g>
</svg>
